<svg xmlns="http://www.w3.org/2000/svg" version="1.1" xmlns:xlink="http://www.w3.org/1999/xlink" xmlns:svgjs="http://svgjs.dev/svgjs" width="1500" height="1500" viewBox="0 0 1500 1500"><rect width="1500" height="1500" fill="#ffffff"></rect><g transform="matrix(0.6666666666666666,0,0,0.6666666666666666,249.39393939393938,438.5856950067477)"><svg viewBox="0 0 396 247" data-background-color="#ffffff" preserveAspectRatio="xMidYMid meet" height="935" width="1500" xmlns="http://www.w3.org/2000/svg" xmlns:xlink="http://www.w3.org/1999/xlink"><g id="tight-bounds" transform="matrix(1,0,0,1,0.2400000000000091,-0.09999999999999432)"><svg viewBox="0 0 395.52 247.2" height="247.2" width="395.52"><g><svg></svg></g><g><svg viewBox="0 0 395.52 247.2" height="247.2" width="395.52"><g transform="matrix(1,0,0,1,75.54432,78.99413333333332)"><svg viewBox="0 0 244.43135999999998 89.21173333333334" height="89.21173333333334" width="244.43135999999998"><g><svg viewBox="0 0 244.43135999999998 89.21173333333334" height="89.21173333333334" width="244.43135999999998"><g><svg viewBox="0 0 244.43135999999998 89.21173333333334" height="89.21173333333334" width="244.43135999999998"><g><svg viewBox="0 0 244.43135999999998 89.21173333333334" height="89.21173333333334" width="244.43135999999998"><g id="textblocktransform"><svg viewBox="0 0 244.43135999999998 89.21173333333334" height="89.21173333333334" width="244.43135999999998" id="textblock"><g><svg viewBox="0 0 244.43135999999998 89.21173333333334" height="89.21173333333334" width="244.43135999999998"><g transform="matrix(1,0,0,1,0,0)"><svg width="244.43135999999998" viewBox="4.5 -39.05 139.04 50.75" height="89.21173333333334" data-palette-color="#6813cc"><path d="M18.35 0.25L18.35 0.25Q14.45 0.25 11.33-1.55 8.2-3.35 6.38-6.48 4.55-9.6 4.5-13.5L4.5-13.5 4.5-37.1Q4.5-38 5.03-38.53 5.55-39.05 6.45-39.05L6.45-39.05Q7.3-39.05 7.83-38.53 8.35-38 8.35-37.1L8.35-37.1 8.35-22.4Q10-24.75 12.73-26.18 15.45-27.6 18.8-27.6L18.8-27.6Q22.65-27.6 25.7-25.78 28.75-23.95 30.53-20.8 32.3-17.65 32.3-13.7L32.3-13.7Q32.3-9.7 30.48-6.55 28.65-3.4 25.5-1.58 22.35 0.25 18.35 0.25ZM18.35-3.25L18.35-3.25Q21.25-3.25 23.55-4.63 25.85-6 27.18-8.35 28.5-10.7 28.5-13.7L28.5-13.7Q28.5-16.65 27.18-19.03 25.85-21.4 23.55-22.75 21.25-24.1 18.35-24.1L18.35-24.1Q15.5-24.1 13.2-22.75 10.9-21.4 9.6-19.03 8.3-16.65 8.3-13.7L8.3-13.7Q8.3-10.7 9.6-8.35 10.9-6 13.2-4.63 15.5-3.25 18.35-3.25ZM46.4 0L45.75 0Q43.75 0 42.17-1.1 40.6-2.2 39.72-4.15 38.85-6.1 38.85-8.65L38.85-8.65 38.85-37.15Q38.85-38 39.37-38.53 39.9-39.05 40.75-39.05L40.75-39.05Q41.6-39.05 42.12-38.53 42.65-38 42.65-37.15L42.65-37.15 42.65-8.65Q42.65-6.5 43.52-5.15 44.4-3.8 45.75-3.8L45.75-3.8 47-3.8Q47.75-3.8 48.2-3.28 48.65-2.75 48.65-1.9L48.65-1.9Q48.65-1.05 48.02-0.53 47.4 0 46.4 0L46.4 0ZM56.7 0L56.7 0Q55.8 0 55.27-0.53 54.75-1.05 54.75-1.95L54.75-1.95 54.75-25.4Q54.75-26.3 55.27-26.83 55.8-27.35 56.7-27.35L56.7-27.35Q57.55-27.35 58.07-26.83 58.6-26.3 58.6-25.4L58.6-25.4 58.6-1.95Q58.6-1.05 58.07-0.53 57.55 0 56.7 0ZM56.65-32.55L56.65-32.55Q55.55-32.55 54.75-33.35 53.95-34.15 53.95-35.3L53.95-35.3Q53.95-36.55 54.77-37.27 55.6-38 56.7-38L56.7-38Q57.75-38 58.57-37.27 59.4-36.55 59.4-35.3L59.4-35.3Q59.4-34.15 58.6-33.35 57.8-32.55 56.65-32.55ZM105.34 0L105.34 0Q104.49 0 103.94-0.53 103.39-1.05 103.39-1.9L103.39-1.9 103.39-16.3Q103.39-19.85 101.54-21.93 99.69-24 96.79-24L96.79-24Q93.69-24 91.72-21.93 89.74-19.85 89.79-16.4L89.79-16.4 86.34-16.4Q86.39-19.75 87.79-22.3 89.19-24.85 91.64-26.25 94.09-27.65 97.19-27.65L97.19-27.65Q100.14-27.65 102.42-26.25 104.69-24.85 105.97-22.3 107.24-19.75 107.24-16.3L107.24-16.3 107.24-1.9Q107.24-1.05 106.72-0.53 106.19 0 105.34 0ZM70.34 0L70.34 0Q69.44 0 68.92-0.53 68.39-1.05 68.39-1.9L68.39-1.9 68.39-25.4Q68.39-26.25 68.92-26.8 69.44-27.35 70.34-27.35L70.34-27.35Q71.19-27.35 71.72-26.8 72.24-26.25 72.24-25.4L72.24-25.4 72.24-1.9Q72.24-1.05 71.72-0.53 71.19 0 70.34 0ZM87.89 0L87.89 0Q87.04 0 86.49-0.53 85.94-1.05 85.94-1.9L85.94-1.9 85.94-16.3Q85.94-19.85 84.09-21.93 82.24-24 79.34-24L79.34-24Q76.24-24 74.24-21.98 72.24-19.95 72.24-16.7L72.24-16.7 69.49-16.7Q69.59-19.9 70.92-22.38 72.24-24.85 74.54-26.25 76.84-27.65 79.74-27.65L79.74-27.65Q82.69-27.65 84.97-26.25 87.24-24.85 88.52-22.3 89.79-19.75 89.79-16.3L89.79-16.3 89.79-1.9Q89.79-1.05 89.27-0.53 88.74 0 87.89 0ZM117.69 11.7L117.69 11.7Q116.79 11.7 116.27 11.18 115.74 10.65 115.74 9.75L115.74 9.75 115.74-13.85Q115.79-17.75 117.62-20.88 119.44-24 122.57-25.8 125.69-27.6 129.59-27.6L129.59-27.6Q133.59-27.6 136.74-25.78 139.89-23.95 141.72-20.8 143.54-17.65 143.54-13.65L143.54-13.65Q143.54-9.7 141.77-6.55 139.99-3.4 136.94-1.58 133.89 0.25 130.04 0.25L130.04 0.25Q126.69 0.25 123.97-1.18 121.24-2.6 119.59-4.95L119.59-4.95 119.59 9.75Q119.59 10.65 119.07 11.18 118.54 11.7 117.69 11.7ZM129.59-3.25L129.59-3.25Q132.49-3.25 134.79-4.6 137.09-5.95 138.42-8.33 139.74-10.7 139.74-13.65L139.74-13.65Q139.74-16.65 138.42-19 137.09-21.35 134.79-22.73 132.49-24.1 129.59-24.1L129.59-24.1Q126.74-24.1 124.44-22.73 122.14-21.35 120.84-19 119.54-16.65 119.54-13.65L119.54-13.65Q119.54-10.7 120.84-8.33 122.14-5.95 124.44-4.6 126.74-3.25 129.59-3.25Z" opacity="1" transform="matrix(1,0,0,1,0,0)" fill="#000000" class="wordmark-text-0" data-fill-palette-color="primary" id="text-0"></path></svg></g></svg></g></svg></g></svg></g></svg></g></svg></g></svg></g><g><path d="M245.816 0c68.262 0 123.6 55.338 123.6 123.6 0 68.262-55.338 123.6-123.6 123.6-48.449 0-90.387-27.876-110.651-68.464l4.516 0c19.933 38.292 59.98 64.441 106.135 64.441 66.041 0 119.577-53.537 119.577-119.577 0-66.041-53.537-119.577-119.577-119.577-46.155 0-86.202 26.149-106.135 64.441l-4.516 0c20.264-40.588 62.202-68.464 110.651-68.464z" fill="#000000" stroke="transparent" data-fill-palette-color="tertiary"></path></g></svg></g><defs></defs></svg><rect width="395.52" height="247.2" fill="none" stroke="none" visibility="hidden"></rect></g></svg></g></svg>